<svg  xmlns="http://www.w3.org/2000/svg" width="16" height="16" fill="currentColor" class="bi bi-pencil" viewBox="0 0 16 16">
    <path d="M14,3L13,2C10.011,3.752 6.032,7.926 6.007,8L8,10C8.074,9.976 12.218,6.038 14,3Z" />
    <path d="M5.5,8.5L7.5,10.5C7.5,10.5 8.035,14.795 1.719,13.39C3.456,11.669 0.932,9.185 5.5,8.5Z"/>
    <path d="M5.5,8.5L7.5,10.5C7.5,10.5 8.035,14.795 1.719,13.39C3.456,11.669 0.932,9.185 5.5,8.5ZM5.159,9.573L6.511,10.925C6.487,11.261 6.367,11.806 5.872,12.188C5.366,12.578 4.557,12.773 3.281,12.64C3.359,12.366 3.404,12.087 3.433,11.807C3.466,11.487 3.475,11.167 3.514,10.86C3.546,10.604 3.587,10.352 3.79,10.148C4.049,9.888 4.478,9.71 5.159,9.574L5.159,9.573Z"/>
</svg>
